<?xml version="1.0" encoding="UTF-8" standalone="no"?>
<svg
   xmlns:dc="http://purl.org/dc/elements/1.1/"
   xmlns:cc="http://creativecommons.org/ns#"
   xmlns:rdf="http://www.w3.org/1999/02/22-rdf-syntax-ns#"
   xmlns:svg="http://www.w3.org/2000/svg"
   xmlns="http://www.w3.org/2000/svg"
   xmlns:xlink="http://www.w3.org/1999/xlink"
   xmlns:sodipodi="http://sodipodi.sourceforge.net/DTD/sodipodi-0.dtd"
   xmlns:inkscape="http://www.inkscape.org/namespaces/inkscape"
   id="svg129"
   width="205"
   height="210.939"
   version="1"
   sodipodi:docname="panel-background.svg"
   inkscape:version="0.92.4 (5da689c313, 2019-01-14)">
  <metadata
     id="metadata69">
    <rdf:RDF>
      <cc:Work
         rdf:about="">
        <dc:format>image/svg+xml</dc:format>
        <dc:type
           rdf:resource="http://purl.org/dc/dcmitype/StillImage" />
      </cc:Work>
    </rdf:RDF>
  </metadata>
  <sodipodi:namedview
     pagecolor="#ffffff"
     bordercolor="#666666"
     borderopacity="1"
     objecttolerance="10"
     gridtolerance="10"
     guidetolerance="10"
     inkscape:pageopacity="0"
     inkscape:pageshadow="2"
     inkscape:window-width="936"
     inkscape:window-height="1020"
     id="namedview67"
     showgrid="false"
     inkscape:zoom="1.1188069"
     inkscape:cx="88.199051"
     inkscape:cy="105.4695"
     inkscape:window-x="968"
     inkscape:window-y="44"
     inkscape:window-maximized="0"
     inkscape:current-layer="svg129" />
  <defs
     id="defs15">
    <radialGradient
       id="radialGradient4263"
       cx="984"
       cy="905.362"
       r="8.5"
       fx="984"
       fy="905.362"
       gradientTransform="matrix(-2.0000092,-4.2453419e-5,4.2452431e-5,-1.9999627,2105.9707,1910.6713)"
       gradientUnits="userSpaceOnUse"
       xlink:href="#linearGradient4465" />
    <linearGradient
       id="linearGradient4465">
      <stop
         id="stop3"
         style="stop-color:#000000;stop-opacity:0.50980395"
         offset="0" />
      <stop
         id="stop5"
         style="stop-color:#000000;stop-opacity:0"
         offset="1" />
    </linearGradient>
    <linearGradient
       id="linearGradient4259"
       x1="83.6"
       x2="83.6"
       y1="-969.362"
       y2="-952.362"
       gradientTransform="matrix(0.71428571,0,0,1,-317.71429,1250.3622)"
       gradientUnits="userSpaceOnUse"
       xlink:href="#linearGradient4465" />
    <radialGradient
       id="radialGradient3382"
       cx="984"
       cy="905.362"
       r="8.5"
       fx="984"
       fy="905.362"
       gradientTransform="matrix(-1.8927835e-5,1.9999979,-1.9999736,-1.8927605e-5,1998.719,-1868.0418)"
       gradientUnits="userSpaceOnUse"
       xlink:href="#linearGradient4465" />
    <linearGradient
       id="linearGradient4452"
       x1="-260"
       x2="-260"
       y1="281"
       y2="298"
       gradientUnits="userSpaceOnUse"
       xlink:href="#linearGradient4465" />
    <radialGradient
       id="radialGradient4255"
       cx="982.909"
       cy="906.453"
       r="8.5"
       fx="982.909"
       fy="906.453"
       gradientTransform="matrix(2.0000159,1.4152386e-5,-1.4152136e-5,1.9999805,-1777.8209,-1762.9634)"
       gradientUnits="userSpaceOnUse"
       xlink:href="#linearGradient4465" />
    <radialGradient
       id="radialGradient4275"
       cx="984"
       cy="905.362"
       r="8.5"
       fx="984"
       fy="905.362"
       gradientTransform="matrix(-9.4993794e-7,-2.0000005,1.9999801,-9.4992883e-7,-1672.7052,2017.9403)"
       gradientUnits="userSpaceOnUse"
       xlink:href="#linearGradient4465" />
    <linearGradient
       id="linearGradient4385"
       x1="83.6"
       x2="83.6"
       y1="-969.362"
       y2="-952.362"
       gradientTransform="matrix(0.71428571,0,0,1,-317.71429,1250.3622)"
       gradientUnits="userSpaceOnUse"
       xlink:href="#linearGradient4465" />
    <linearGradient
       id="linearGradient4387"
       x1="83.6"
       x2="83.6"
       y1="-969.362"
       y2="-952.362"
       gradientTransform="matrix(0.71428571,0,0,1,-317.71429,1250.3622)"
       gradientUnits="userSpaceOnUse"
       xlink:href="#linearGradient4465" />
  </defs>
  <rect
     id="center"
     style="fill:none"
     width="50"
     height="50"
     x="7"
     y="51.94" />
  <g
     id="topleft"
     transform="translate(-183,-207.06082)"
     style="fill:none">
    <path
       id="path42"
       style="fill:none"
       d="m 190.00001,251.99982 v 7 h -7 v -2 c 0,-2.77 2.23,-5 5,-5 z" />
  </g>
  <g
     id="left"
     transform="translate(-183,-207.06082)"
     style="fill:none">
    <path
       id="path45"
       style="fill:none"
       d="m 183.00002,258.99981 v 50 l 7,10e-6 v -50 z" />
  </g>
  <g
     id="right"
     transform="translate(-183,-207.06083)"
     style="fill:none">
    <path
       id="path48"
       style="fill:none"
       d="m 247,258.99982 v 50 l -7,10e-6 v -50 z" />
  </g>
  <g
     id="bottomleft"
     transform="translate(-183,-207.06091)"
     style="fill:none">
    <path
       id="path51"
       style="fill:none"
       d="m 190.00001,315.99991 v -7 h -7 v 2 c 0,2.77 2.23,5 5,5 z" />
  </g>
  <g
     id="bottom"
     transform="translate(-183,-207.06095)"
     style="fill:none">
    <path
       id="path54"
       style="fill:none"
       d="M 189.99998,315.99995 H 240 v -7 h -50.00001 z" />
  </g>
  <g
     id="bottomright"
     transform="translate(-183,-207.06091)"
     style="fill:none">
    <path
       id="path57"
       style="fill:none"
       d="m 240,315.99991 v -7 h 7 v 2 c 0,2.77 -2.23,5 -5,5 z" />
  </g>
  <g
     id="topright"
     transform="translate(-183,-207.06082)"
     style="fill:none">
    <path
       id="path60"
       style="fill:none"
       d="m 240,251.99982 v 7 h 7 v -2 c 0,-2.77 -2.23,-5 -5,-5 z" />
  </g>
  <g
     id="top"
     transform="translate(-183,-207.06082)"
     style="fill:none">
    <path
       id="path63"
       style="fill:none"
       d="M 189.99998,251.99982 H 240 v 7 h -50.00001 z" />
  </g>
  <rect
     id="shadow-hint-right-margin"
     style="fill:#ff00ff"
     width="10"
     height="4"
     x="195"
     y="72.94" />
  <rect
     id="shadow-hint-bottom-margin"
     style="fill:#ff00ff"
     width="4"
     height="10"
     x="161"
     y="106.94" />
  <rect
     id="shadow-hint-left-margin"
     style="fill:#ff00ff"
     width="10"
     height="4"
     x="121"
     y="72.94" />
  <rect
     id="shadow-hint-top-margin"
     style="fill:#ff00ff"
     width="4"
     height="10"
     x="162"
     y="32.94" />
  <rect
     id="hint-top-margin"
     style="fill:none"
     width="4"
     height="2"
     x="29"
     y="44.94" />
  <rect
     id="hint-bottom-margin"
     style="fill:none"
     width="4"
     height="2"
     x="29"
     y="106.94" />
  <rect
     id="hint-left-margin"
     style="fill:none"
     width="2"
     height="4"
     x="0"
     y="72.94" />
  <rect
     id="hint-right-margin"
     style="fill:none"
     width="2"
     height="4"
     x="62"
     y="72.94" />
  <rect
     id="mask-center"
     style="fill:none"
     width="50"
     height="50"
     x="70"
     y="144.94" />
  <path
     id="mask-topleft"
     style="fill:none"
     d="m 70,137.93887 v 7 h -7 v -2 c 0,-2.77 2.23,-5 5,-5 z" />
  <path
     id="mask-left"
     style="fill:none"
     d="m 63.00001,144.93886 v 50 l 7,1e-5 v -50 z" />
  <path
     id="mask-right"
     style="fill:none"
     d="m 126.99999,144.93887 v 50 l -7,1e-5 v -50 z" />
  <path
     id="mask-bottomleft"
     style="fill:none"
     d="m 70,201.93896 v -7 h -7 v 2 c 0,2.77 2.23,5 5,5 z" />
  <path
     id="mask-bottom"
     style="fill:none"
     d="m 69.99997,201.939 h 50.00002 v -7 H 69.99998 Z" />
  <path
     id="mask-bottomright"
     style="fill:none"
     d="m 119.99999,201.93896 v -7 h 7 v 2 c 0,2.77 -2.23,5 -5,5 z" />
  <path
     id="mask-topright"
     style="fill:none"
     d="m 119.99999,137.93887 v 7 h 7 v -2 c 0,-2.77 -2.23,-5 -5,-5 z" />
  <path
     id="mask-top"
     style="fill:none"
     d="m 69.99997,137.93887 h 50.00002 v 7 H 69.99998 Z" />
  <rect
     id="hint-tile-center"
     style="fill:#ff6600"
     width="5"
     height="5"
     x="0"
     y="-.06" />
  <rect
     id="shadow-center"
     style="fill:none"
     width="50"
     height="50"
     x="138"
     y="50" />
</svg>
